<svg width="241" height="60" viewBox="0 0 241 60" fill="none" xmlns="http://www.w3.org/2000/svg">
<path d="M88.4087 11.7222C90.7985 11.7222 92.8624 12.1929 94.6005 13.1344C96.3747 14.0396 97.7326 15.325 98.674 16.9907C99.6517 18.6201 100.141 20.5211 100.141 22.6936C100.141 24.8662 99.6517 26.7853 98.674 28.4509C97.7326 30.0803 96.3747 31.3658 94.6005 32.3072C92.8624 33.2125 90.7985 33.6651 88.4087 33.6651H77.0571V50.2852H72.4404V11.7222H88.4087ZM87.594 29.4829C90.0562 29.4829 91.9753 28.9216 93.3513 27.7992C94.7272 26.6405 95.4152 24.9386 95.4152 22.6936C95.4152 20.4487 94.7272 18.7649 93.3513 17.6424C91.9753 16.4837 90.0562 15.9044 87.594 15.9044H77.0571V29.4829H87.594ZM103.202 11.7222H107.439V17.1536H103.202V11.7222ZM103.202 22.585H107.439V50.2852H103.202V22.585ZM124.227 50.9369C121.548 50.9369 119.212 50.3214 117.221 49.0902C115.229 47.8229 113.691 46.103 112.604 43.9304C111.518 41.7216 110.975 39.2232 110.975 36.4351C110.975 33.6832 111.518 31.2209 112.604 29.0484C113.691 26.8758 115.229 25.174 117.221 23.9429C119.212 22.6755 121.548 22.0419 124.227 22.0419C126.907 22.0419 129.242 22.6755 131.234 23.9429C133.226 25.174 134.764 26.8758 135.851 29.0484C136.937 31.2209 137.48 33.6832 137.48 36.4351C137.48 39.2232 136.937 41.7216 135.851 43.9304C134.764 46.103 133.226 47.8229 131.234 49.0902C129.242 50.3214 126.907 50.9369 124.227 50.9369ZM124.227 47.4065C126.074 47.4065 127.631 46.9358 128.898 45.9943C130.202 45.0529 131.198 43.7494 131.886 42.0837C132.574 40.4181 132.918 38.5352 132.918 36.4351C132.918 34.3349 132.574 32.4702 131.886 30.8407C131.198 29.2113 130.202 27.9259 128.898 26.9844C127.631 26.043 126.074 25.5723 124.227 25.5723C122.417 25.5723 120.86 26.043 119.556 26.9844C118.253 27.9259 117.257 29.2113 116.569 30.8407C115.881 32.4702 115.537 34.3349 115.537 36.4351C115.537 38.5352 115.881 40.4181 116.569 42.0837C117.257 43.7494 118.253 45.0529 119.556 45.9943C120.86 46.9358 122.417 47.4065 124.227 47.4065ZM140.997 22.585H145.234V27.256C145.922 25.9163 146.972 24.7214 148.384 23.6713C149.832 22.585 151.824 22.0419 154.359 22.0419C157.364 22.0419 159.627 22.8385 161.148 24.4317C162.705 26.0249 163.483 28.1794 163.483 30.8951V50.2852H159.247V31.6011C159.247 29.682 158.758 28.1975 157.78 27.1474C156.803 26.0973 155.173 25.5723 152.892 25.5723C150.792 25.5723 148.982 26.3327 147.461 27.8535C145.976 29.3743 145.234 31.4744 145.234 34.1539V50.2852H140.997V22.585ZM166.804 36.4351C166.804 33.6832 167.347 31.2209 168.433 29.0484C169.519 26.8758 171.058 25.174 173.05 23.9429C175.041 22.6755 177.395 22.0419 180.111 22.0419C182.935 22.0419 185.343 22.7299 187.334 24.1058C189.326 25.4818 190.829 27.3284 191.842 29.6458C192.893 31.9632 193.345 34.516 193.2 37.3041H171.366C171.475 40.3095 172.289 42.7536 173.81 44.6365C175.367 46.4832 177.54 47.4065 180.328 47.4065C182.537 47.4065 184.257 46.8272 185.488 45.6685C186.719 44.5098 187.606 43.1157 188.149 41.4863H192.657C191.861 44.2382 190.412 46.5013 188.312 48.2755C186.212 50.0498 183.551 50.9369 180.328 50.9369C177.612 50.9369 175.241 50.3214 173.213 49.0902C171.185 47.8229 169.61 46.103 168.487 43.9304C167.365 41.7216 166.804 39.2232 166.804 36.4351ZM188.638 33.9366C188.24 31.4382 187.316 29.4286 185.868 27.9078C184.42 26.3508 182.5 25.5723 180.111 25.5723C177.685 25.5723 175.747 26.3327 174.299 27.8535C172.851 29.3743 171.927 31.402 171.529 33.9366H188.638ZM194.983 36.4351C194.983 33.6832 195.527 31.2209 196.613 29.0484C197.699 26.8758 199.238 25.174 201.229 23.9429C203.221 22.6755 205.575 22.0419 208.29 22.0419C211.115 22.0419 213.523 22.7299 215.514 24.1058C217.506 25.4818 219.008 27.3284 220.022 29.6458C221.072 31.9632 221.525 34.516 221.38 37.3041H199.546C199.654 40.3095 200.469 42.7536 201.99 44.6365C203.547 46.4832 205.719 47.4065 208.508 47.4065C210.716 47.4065 212.436 46.8272 213.667 45.6685C214.898 44.5098 215.786 43.1157 216.329 41.4863H220.837C220.04 44.2382 218.592 46.5013 216.492 48.2755C214.392 50.0498 211.73 50.9369 208.508 50.9369C205.792 50.9369 203.42 50.3214 201.392 49.0902C199.365 47.8229 197.79 46.103 196.667 43.9304C195.545 41.7216 194.983 39.2232 194.983 36.4351ZM216.818 33.9366C216.419 31.4382 215.496 29.4286 214.048 27.9078C212.599 26.3508 210.68 25.5723 208.29 25.5723C205.864 25.5723 203.927 26.3327 202.479 27.8535C201.03 29.3743 200.107 31.402 199.709 33.9366H216.818ZM237.176 22.585H239.077V26.6586H236.144C233.79 26.6586 232.016 27.2198 230.821 28.3423C229.626 29.4648 229.047 31.5287 229.083 34.5341V50.2852H224.847V22.585H228.975V27.7448C229.59 26.2603 230.568 25.0291 231.908 24.0515C233.247 23.0738 235.003 22.585 237.176 22.585Z" fill="black"/>
<path d="M32.1028 25.4779L46.2919 13.1826L46.8173 13.7081L34.5212 27.8953L60 29.5634V30.4366L34.5202 32.1028L46.8173 46.2928L46.2919 46.8183L32.1028 34.5212L30.4366 60H29.5634L27.8953 34.5212L13.7072 46.8173L13.1817 46.2919L25.4769 32.1037L0 30.4366V29.5634L25.4769 27.8944L13.1826 13.7081L13.7081 13.1826L27.8953 25.4779L29.5634 0H30.4366L32.1028 25.4779Z" fill="black"/>
</svg>
